<svg xmlns="http://www.w3.org/2000/svg" viewBox="0 0 512 512">
  <!-- Rounded square background -->
  <rect width="512" height="512" rx="110" fill="#1a1a2e"/>
  <!-- Gradient overlay -->
  <defs>
    <linearGradient id="bg" x1="0%" y1="0%" x2="100%" y2="100%">
      <stop offset="0%" style="stop-color:#E31837;stop-opacity:1" />
      <stop offset="100%" style="stop-color:#c0102a;stop-opacity:1" />
    </linearGradient>
  </defs>
  <rect width="512" height="512" rx="110" fill="url(#bg)"/>
  <!-- Phone handset icon (centered, white) -->
  <path d="M373 340l-58-25c-9-4-20-1-26 7l-20 25c-5 6-13 8-20 5
    C194 324 188 318 160 274c-3-7-1-15 5-20l25-20c8-6 11-17 7-26
    L172 150c-4-10-15-15-25-12l-55 15C82 156 75 165 75 176
    c0 150 122 261 272 261c11 0 20-7 23-17l15-55c3-10-2-21-12-25z"
    fill="white"/>
</svg>
